<svg xmlns="http://www.w3.org/2000/svg" width="1200" height="1500" viewBox="0 0 1200 1500" preserveAspectRatio="xMidYMid slice">
<defs>
<linearGradient id="sky" x1="0" y1="0" x2="0" y2="1"><stop offset="0" stop-color="#8E9AA3"/><stop offset="1" stop-color="#3C4750"/></linearGradient>
<filter id="grain"><feTurbulence type="fractalNoise" baseFrequency="0.85" numOctaves="3" stitchTiles="stitch"/><feColorMatrix type="saturate" values="0"/></filter>
<filter id="soft"><feGaussianBlur stdDeviation="26"/></filter>
<filter id="glow"><feGaussianBlur stdDeviation="46"/></filter>
<linearGradient id="hz0" x1="0" y1="0" x2="0" y2="1"><stop offset="0" stop-color="#EFE9E1" stop-opacity="0"/><stop offset="0.34" stop-color="#EFE9E1" stop-opacity="0.34"/><stop offset="1" stop-color="#EFE9E1" stop-opacity="0"/></linearGradient>
<linearGradient id="hz1" x1="0" y1="0" x2="0" y2="1"><stop offset="0" stop-color="#EFE9E1" stop-opacity="0"/><stop offset="0.34" stop-color="#EFE9E1" stop-opacity="0.34"/><stop offset="1" stop-color="#EFE9E1" stop-opacity="0"/></linearGradient>
<linearGradient id="hz2" x1="0" y1="0" x2="0" y2="1"><stop offset="0" stop-color="#EFE9E1" stop-opacity="0"/><stop offset="0.34" stop-color="#EFE9E1" stop-opacity="0.34"/><stop offset="1" stop-color="#EFE9E1" stop-opacity="0"/></linearGradient>
</defs>
<rect width="1200" height="1500" fill="url(#sky)"/>
<circle cx="350" cy="380" r="216" fill="#EFE9E1" opacity="0.10" filter="url(#glow)"/>
<circle cx="350" cy="380" r="60" fill="#EFE9E1" opacity="0.50"/>
<path d="M -20 1540 L -20 807.8 L 0.0 807.8 L 13.3 808.3 L 26.7 804.5 L 40.0 806.1 L 53.3 802.5 L 66.7 804.1 L 80.0 797.8 L 93.3 804.3 L 106.7 801.9 L 120.0 796.1 L 133.3 795.5 L 146.7 798.1 L 160.0 792.0 L 173.3 796.2 L 186.7 793.8 L 200.0 789.4 L 213.3 777.0 L 226.7 774.1 L 240.0 774.2 L 253.3 772.5 L 266.7 774.6 L 280.0 773.9 L 293.3 768.4 L 306.7 767.7 L 320.0 765.4 L 333.3 757.3 L 346.7 763.0 L 360.0 758.7 L 373.3 761.4 L 386.7 756.7 L 400.0 766.1 L 413.3 770.8 L 426.7 761.8 L 440.0 770.7 L 453.3 766.2 L 466.7 773.5 L 480.0 774.4 L 493.3 787.2 L 506.7 789.4 L 520.0 795.8 L 533.3 791.3 L 546.7 802.2 L 560.0 806.4 L 573.3 808.4 L 586.7 818.1 L 600.0 818.6 L 613.3 818.2 L 626.7 827.7 L 640.0 828.2 L 653.3 827.9 L 666.7 836.0 L 680.0 831.0 L 693.3 838.1 L 706.7 840.9 L 720.0 834.7 L 733.3 843.4 L 746.7 836.0 L 760.0 842.6 L 773.3 837.4 L 786.7 831.6 L 800.0 842.0 L 813.3 827.1 L 826.7 825.1 L 840.0 826.0 L 853.3 818.7 L 866.7 818.0 L 880.0 812.6 L 893.3 809.1 L 906.7 803.5 L 920.0 795.0 L 933.3 788.6 L 946.7 789.4 L 960.0 780.5 L 973.3 776.3 L 986.7 776.0 L 1000.0 759.0 L 1013.3 757.3 L 1026.7 756.0 L 1040.0 744.6 L 1053.3 749.0 L 1066.7 740.0 L 1080.0 734.7 L 1093.3 729.0 L 1106.7 735.2 L 1120.0 719.6 L 1133.3 726.1 L 1146.7 721.2 L 1160.0 720.5 L 1173.3 714.7 L 1186.7 707.0 L 1200.0 706.5 L 1220 1540 Z" fill="#5D6B76" opacity="0.70"/>
<rect x="0" y="544" width="1200" height="338" fill="url(#hz0)" opacity="0.75" filter="url(#soft)"/>
<path d="M -20 1540 L -20 1071.0 L 0.0 1071.0 L 13.3 1081.2 L 26.7 1081.7 L 40.0 1087.4 L 53.3 1086.2 L 66.7 1090.7 L 80.0 1092.5 L 93.3 1095.4 L 106.7 1101.4 L 120.0 1100.7 L 133.3 1107.2 L 146.7 1104.8 L 160.0 1102.4 L 173.3 1107.4 L 186.7 1107.5 L 200.0 1104.6 L 213.3 1109.3 L 226.7 1105.0 L 240.0 1109.4 L 253.3 1111.9 L 266.7 1114.3 L 280.0 1118.0 L 293.3 1115.6 L 306.7 1110.9 L 320.0 1116.7 L 333.3 1115.8 L 346.7 1122.2 L 360.0 1125.3 L 373.3 1118.9 L 386.7 1127.5 L 400.0 1124.5 L 413.3 1125.3 L 426.7 1129.9 L 440.0 1131.4 L 453.3 1131.9 L 466.7 1133.4 L 480.0 1136.8 L 493.3 1140.8 L 506.7 1136.9 L 520.0 1140.1 L 533.3 1139.6 L 546.7 1145.1 L 560.0 1140.6 L 573.3 1145.4 L 586.7 1137.9 L 600.0 1145.3 L 613.3 1139.8 L 626.7 1143.2 L 640.0 1139.8 L 653.3 1137.7 L 666.7 1126.7 L 680.0 1130.5 L 693.3 1124.5 L 706.7 1123.9 L 720.0 1116.2 L 733.3 1109.1 L 746.7 1109.5 L 760.0 1104.9 L 773.3 1091.5 L 786.7 1084.8 L 800.0 1081.7 L 813.3 1077.7 L 826.7 1066.4 L 840.0 1064.4 L 853.3 1057.7 L 866.7 1054.1 L 880.0 1041.6 L 893.3 1035.6 L 906.7 1033.7 L 920.0 1030.6 L 933.3 1023.7 L 946.7 1020.4 L 960.0 1011.0 L 973.3 1004.5 L 986.7 1007.2 L 1000.0 1003.2 L 1013.3 993.9 L 1026.7 991.6 L 1040.0 995.3 L 1053.3 992.9 L 1066.7 986.5 L 1080.0 985.6 L 1093.3 986.0 L 1106.7 981.1 L 1120.0 983.2 L 1133.3 982.1 L 1146.7 979.7 L 1160.0 984.3 L 1173.3 988.4 L 1186.7 979.7 L 1200.0 985.7 L 1220 1540 Z" fill="#3C4750" opacity="0.85"/>
<rect x="0" y="880" width="1200" height="260" fill="url(#hz1)" opacity="0.75" filter="url(#soft)"/>
<path d="M -20 1540 L -20 1180.9 L 0.0 1180.9 L 13.3 1182.6 L 26.7 1184.0 L 40.0 1182.3 L 53.3 1184.4 L 66.7 1184.9 L 80.0 1191.3 L 93.3 1189.8 L 106.7 1196.4 L 120.0 1193.4 L 133.3 1195.8 L 146.7 1201.7 L 160.0 1204.9 L 173.3 1210.5 L 186.7 1214.6 L 200.0 1215.6 L 213.3 1217.5 L 226.7 1223.8 L 240.0 1225.4 L 253.3 1227.2 L 266.7 1230.8 L 280.0 1231.6 L 293.3 1239.4 L 306.7 1237.5 L 320.0 1241.0 L 333.3 1246.3 L 346.7 1248.3 L 360.0 1250.1 L 373.3 1251.8 L 386.7 1254.2 L 400.0 1256.3 L 413.3 1257.3 L 426.7 1253.9 L 440.0 1254.0 L 453.3 1252.7 L 466.7 1254.8 L 480.0 1252.8 L 493.3 1257.8 L 506.7 1256.1 L 520.0 1252.0 L 533.3 1254.6 L 546.7 1254.0 L 560.0 1249.2 L 573.3 1253.5 L 586.7 1252.3 L 600.0 1250.0 L 613.3 1252.8 L 626.7 1246.4 L 640.0 1245.7 L 653.3 1250.4 L 666.7 1250.0 L 680.0 1245.5 L 693.3 1249.9 L 706.7 1250.2 L 720.0 1249.3 L 733.3 1248.2 L 746.7 1253.9 L 760.0 1255.4 L 773.3 1254.1 L 786.7 1252.9 L 800.0 1256.4 L 813.3 1258.4 L 826.7 1258.9 L 840.0 1262.2 L 853.3 1259.6 L 866.7 1265.5 L 880.0 1265.6 L 893.3 1262.8 L 906.7 1263.6 L 920.0 1269.5 L 933.3 1267.4 L 946.7 1272.2 L 960.0 1273.1 L 973.3 1269.1 L 986.7 1272.7 L 1000.0 1269.3 L 1013.3 1271.4 L 1026.7 1269.2 L 1040.0 1273.3 L 1053.3 1268.4 L 1066.7 1273.5 L 1080.0 1269.1 L 1093.3 1268.1 L 1106.7 1265.8 L 1120.0 1266.4 L 1133.3 1264.7 L 1146.7 1265.3 L 1160.0 1270.1 L 1173.3 1267.4 L 1186.7 1263.3 L 1200.0 1263.0 L 1220 1540 Z" fill="#20262C" opacity="0.96"/>
<rect x="0" y="1196" width="1200" height="182" fill="url(#hz2)" opacity="0.75" filter="url(#soft)"/>
<rect width="1200" height="1500" filter="url(#grain)" opacity="0.09" style="mix-blend-mode:overlay"/>
</svg>